<svg width="227" height="227" viewBox="0 0 227 227" fill="none" xmlns="http://www.w3.org/2000/svg">
<path d="M69.0343 122.433L78.6198 102.704C80.0611 99.9104 82.1141 97.6853 84.7791 96.0293C87.4372 94.3801 90.3264 93.5556 93.4468 93.5556H108.396V22H166.44L158.792 37.3333L166.44 52.6667H118.594V93.5556H132.768C135.895 93.5556 138.767 94.3801 141.385 96.0293C144.009 97.6785 146.062 99.8797 147.544 102.633L157.435 122.883L133.512 138.809L113.495 128.648L93.4672 138.809L69.0343 122.433ZM28 206L64.578 131.592L92.7432 150.524L113.495 140.24L134.257 150.524L162.106 132.104L199 206H28Z" fill="black"/>
</svg>
