<svg width="119" height="122" viewBox="0 0 119 122" fill="none" xmlns="http://www.w3.org/2000/svg">
<path d="M59.5003 15C34.9436 15 15 34.9388 15 59.4972C15 84.0556 34.9436 104 59.5003 104C84.057 104 104 84.0558 104 59.4974C104 34.939 84.057 15 59.5003 15ZM59.5003 18.3176C78.5735 18.3176 94.593 31.2471 99.285 48.8311L84.5657 33.7104L83.2727 32.3824L82.0315 33.7688L67.7006 49.8116C65.5907 47.9263 63.4583 46.0663 61.304 44.2319L60.086 43.1879L58.9493 44.3305C55.4799 47.8237 52.0501 51.3561 48.6608 54.927L34.4752 39.4528L33.1993 38.0608L31.9234 39.4528L18.7119 53.8019C21.4819 33.7389 38.6707 18.3176 59.5003 18.3176ZM78.4764 45.6525L77.7628 52.2182L81.7646 46.2791L83.7597 49.3763L85.6096 47.8043L90.6553 52.781L89.3387 46.3604L92.9577 47.2999L100.23 54.7702L100.387 54.6195C100.579 56.2383 100.676 57.8669 100.677 59.497C100.677 66.3703 98.9957 72.8447 96.0258 78.5385C87.4424 68.6127 78.8569 59.9571 70.2758 52.131L72.3172 49.8459L78.4768 45.6525H78.4764ZM37.6179 49.8749L42.5244 53.3608L46.2769 57.4499C38.9519 65.2495 31.6843 73.3809 24.7601 81.6415C20.681 75.249 18.317 67.6511 18.317 59.4972V59.3525L21.3327 56.0752L28.2458 52.3285L25.0561 62.3625L32.816 52.8561L37.8848 58.9289L37.6179 49.8751V49.8749ZM63.855 61.3183L73.7202 72.6283L72.2934 62.5015L83.6435 70.0531C87.2543 73.8454 90.7661 77.7306 94.1755 81.705L94.2104 81.6705C86.8988 93.1074 74.0962 100.682 59.5003 100.682C46.1827 100.682 34.3566 94.3736 26.8311 84.5818C30.3823 80.3297 34.0272 76.1101 37.7287 71.9499L48.1502 65.6741L42.7103 79.9188L54.1294 66.3005L55.2893 72.2749L58.9142 65.4481L67.7934 78.3471L63.8552 61.3185L63.855 61.3183Z" fill="white"/>
<path d="M6.633 119.058C6.48733 119.058 6.36467 119.008 6.265 118.908C6.16533 118.808 6.1155 118.686 6.1155 118.54V111.502C6.1155 111.356 6.16533 111.234 6.265 111.134C6.36467 111.027 6.48733 110.973 6.633 110.973H9.3125C10.3552 110.973 11.1372 111.188 11.6585 111.617C12.1798 112.046 12.4405 112.61 12.4405 113.307C12.4405 113.767 12.3102 114.189 12.0495 114.572C11.7965 114.948 11.4247 115.22 10.934 115.389C11.486 115.535 11.8617 115.88 12.061 116.424C12.268 116.961 12.3715 117.49 12.3715 118.011V118.54C12.3715 118.686 12.3217 118.808 12.222 118.908C12.1223 119.008 11.9997 119.058 11.854 119.058C11.693 119.058 11.5627 119.012 11.463 118.919C11.371 118.82 11.325 118.693 11.325 118.54V118.195C11.325 117.812 11.2905 117.459 11.2215 117.137C11.1525 116.807 10.9877 116.516 10.727 116.263C10.4663 116.002 10.0715 115.872 9.5425 115.872H7.162V118.54C7.162 118.686 7.10833 118.808 7.001 118.908C6.90133 119.008 6.77867 119.058 6.633 119.058ZM9.2435 114.883C9.90283 114.883 10.4242 114.753 10.8075 114.492C11.1985 114.231 11.394 113.863 11.394 113.388C11.394 112.928 11.2253 112.575 10.888 112.33C10.5583 112.085 9.991 111.962 9.186 111.962H7.162V114.883H9.2435ZM15.0845 119.058C14.9312 119.058 14.8047 119.008 14.705 118.908C14.613 118.808 14.567 118.686 14.567 118.54C14.567 118.479 14.5862 118.402 14.6245 118.31L17.557 111.387C17.6183 111.249 17.7027 111.138 17.81 111.053C17.925 110.961 18.063 110.915 18.224 110.915H18.339C18.5 110.915 18.6342 110.961 18.7415 111.053C18.8565 111.138 18.9447 111.249 19.006 111.387L21.9385 118.31C21.9768 118.402 21.996 118.479 21.996 118.54C21.996 118.686 21.9462 118.808 21.8465 118.908C21.7545 119.008 21.6318 119.058 21.4785 119.058C21.3712 119.058 21.2715 119.031 21.1795 118.977C21.0952 118.916 21.03 118.835 20.984 118.735L20.2365 116.941H16.3265L15.579 118.735C15.533 118.835 15.464 118.916 15.372 118.977C15.2877 119.031 15.1918 119.058 15.0845 119.058ZM16.729 115.987H19.834L18.2815 112.249L16.729 115.987ZM25.0101 119C24.8644 119 24.7418 118.95 24.6421 118.85C24.5424 118.751 24.4926 118.628 24.4926 118.482V111.502C24.4926 111.356 24.5424 111.234 24.6421 111.134C24.7418 111.027 24.8644 110.973 25.0101 110.973H27.3216C28.1956 110.973 28.9354 111.168 29.5411 111.559C30.1544 111.943 30.6144 112.441 30.9211 113.054C31.2278 113.668 31.3811 114.312 31.3811 114.986C31.3811 115.661 31.2278 116.305 30.9211 116.918C30.6144 117.532 30.1544 118.034 29.5411 118.425C28.9354 118.808 28.1956 119 27.3216 119H25.0101ZM27.1951 118.022C27.8238 118.022 28.3758 117.896 28.8511 117.643C29.3264 117.382 29.6944 117.026 29.9551 116.573C30.2158 116.113 30.3461 115.584 30.3461 114.986C30.3461 114.388 30.2158 113.863 29.9551 113.411C29.6944 112.951 29.3264 112.594 28.8511 112.341C28.3758 112.081 27.8238 111.95 27.1951 111.95H25.5391V118.022H27.1951ZM37.4873 119.115C36.6823 119.115 35.977 118.939 35.3713 118.586C34.7657 118.233 34.298 117.746 33.9683 117.125C33.6387 116.504 33.4662 115.791 33.4508 114.986C33.4662 114.181 33.6387 113.468 33.9683 112.847C34.298 112.226 34.7657 111.74 35.3713 111.387C35.977 111.034 36.6823 110.858 37.4873 110.858C38.2923 110.858 38.9938 111.034 39.5918 111.387C40.1975 111.74 40.6652 112.23 40.9948 112.859C41.3322 113.48 41.5085 114.189 41.5238 114.986C41.5085 115.784 41.3322 116.497 40.9948 117.125C40.6652 117.746 40.1975 118.233 39.5918 118.586C38.9938 118.939 38.2923 119.115 37.4873 119.115ZM37.4873 118.137C38.1007 118.137 38.6335 117.999 39.0858 117.723C39.5382 117.447 39.8832 117.072 40.1208 116.596C40.3585 116.121 40.4773 115.584 40.4773 114.986C40.4773 114.388 40.3585 113.852 40.1208 113.376C39.8832 112.901 39.5382 112.525 39.0858 112.249C38.6335 111.973 38.1007 111.835 37.4873 111.835C36.8663 111.835 36.3297 111.973 35.8773 112.249C35.4327 112.525 35.0915 112.901 34.8538 113.376C34.6162 113.852 34.4973 114.388 34.4973 114.986C34.4973 115.584 34.6162 116.121 34.8538 116.596C35.0915 117.072 35.4327 117.447 35.8773 117.723C36.3297 117.999 36.8663 118.137 37.4873 118.137ZM47.6133 119.115C46.8467 119.115 46.1567 118.95 45.5433 118.621C44.9377 118.283 44.4585 117.804 44.1058 117.183C43.7608 116.554 43.5883 115.822 43.5883 114.986C43.5883 114.151 43.7608 113.422 44.1058 112.801C44.4585 112.173 44.9377 111.694 45.5433 111.364C46.1567 111.027 46.8467 110.858 47.6133 110.858C48.1347 110.858 48.5985 110.919 49.0048 111.042C49.4188 111.165 49.829 111.341 50.2353 111.571C50.404 111.663 50.4883 111.809 50.4883 112.008C50.4883 112.123 50.4462 112.226 50.3618 112.318C50.2775 112.403 50.1663 112.445 50.0283 112.445C49.9517 112.445 49.8827 112.43 49.8213 112.399C49.484 112.223 49.1543 112.088 48.8323 111.996C48.5103 111.904 48.1385 111.858 47.7168 111.858C47.0575 111.858 46.494 111.996 46.0263 112.272C45.5663 112.541 45.2175 112.913 44.9798 113.388C44.7498 113.856 44.6348 114.388 44.6348 114.986C44.6348 115.584 44.7498 116.121 44.9798 116.596C45.2175 117.064 45.5663 117.436 46.0263 117.712C46.494 117.98 47.0575 118.114 47.7168 118.114C48.1385 118.114 48.5103 118.068 48.8323 117.976C49.1543 117.884 49.484 117.75 49.8213 117.574C49.8827 117.543 49.9517 117.528 50.0283 117.528C50.1663 117.528 50.2775 117.57 50.3618 117.654C50.4462 117.739 50.4883 117.842 50.4883 117.965C50.4883 118.164 50.404 118.31 50.2353 118.402C49.829 118.632 49.4188 118.808 49.0048 118.931C48.5985 119.054 48.1347 119.115 47.6133 119.115ZM47.2798 110.501C47.1802 110.501 47.0958 110.482 47.0268 110.444C46.9578 110.406 46.8888 110.348 46.8198 110.271L46.0378 109.466C45.9765 109.405 45.9458 109.332 45.9458 109.248C45.9382 109.164 45.9688 109.087 46.0378 109.018C46.1068 108.941 46.1912 108.903 46.2908 108.903C46.3752 108.903 46.4442 108.93 46.4978 108.983L47.4983 109.834L48.4988 108.983C48.5525 108.93 48.6215 108.903 48.7058 108.903C48.8055 108.903 48.8898 108.941 48.9588 109.018C49.0278 109.087 49.0585 109.164 49.0508 109.248C49.0508 109.332 49.0202 109.405 48.9588 109.466L48.1768 110.271C48.1078 110.348 48.0388 110.406 47.9698 110.444C47.9008 110.482 47.8165 110.501 47.7168 110.501H47.2798ZM53.3899 119C53.2443 119 53.1216 118.95 53.0219 118.85C52.9223 118.751 52.8724 118.628 52.8724 118.482V111.502C52.8724 111.356 52.9223 111.234 53.0219 111.134C53.1216 111.027 53.2443 110.973 53.3899 110.973H58.0014C58.1394 110.973 58.2544 111.023 58.3464 111.122C58.4461 111.214 58.4959 111.329 58.4959 111.467C58.4959 111.605 58.4461 111.72 58.3464 111.812C58.2544 111.904 58.1394 111.95 58.0014 111.95H53.9189V114.492H57.5874C57.7254 114.492 57.8404 114.542 57.9324 114.641C58.0321 114.733 58.0819 114.848 58.0819 114.986C58.0819 115.124 58.0321 115.239 57.9324 115.331C57.8404 115.423 57.7254 115.469 57.5874 115.469H53.9189V118.022H58.0014C58.1394 118.022 58.2544 118.072 58.3464 118.172C58.4461 118.264 58.4959 118.379 58.4959 118.517C58.4959 118.655 58.4461 118.77 58.3464 118.862C58.2544 118.954 58.1394 119 58.0014 119H53.3899ZM61.7354 119C61.5361 119 61.3636 118.931 61.2179 118.793C61.0799 118.647 61.0109 118.475 61.0109 118.275V111.444C61.0109 111.299 61.0608 111.176 61.1604 111.076C61.2601 110.969 61.3828 110.915 61.5284 110.915C61.6741 110.915 61.7968 110.969 61.8964 111.076C62.0038 111.176 62.0574 111.299 62.0574 111.444V117.953H65.8179C65.9636 117.953 66.0863 118.007 66.1859 118.114C66.2933 118.214 66.3469 118.337 66.3469 118.482C66.3469 118.628 66.2933 118.751 66.1859 118.85C66.0863 118.95 65.9636 119 65.8179 119H61.7354ZM71.9954 119.115C71.1904 119.115 70.4851 118.939 69.8794 118.586C69.2737 118.233 68.8061 117.746 68.4764 117.125C68.1467 116.504 67.9742 115.791 67.9589 114.986C67.9742 114.181 68.1467 113.468 68.4764 112.847C68.8061 112.226 69.2737 111.74 69.8794 111.387C70.4851 111.034 71.1904 110.858 71.9954 110.858C72.8004 110.858 73.5019 111.034 74.0999 111.387C74.7056 111.74 75.1732 112.23 75.5029 112.859C75.8402 113.48 76.0166 114.189 76.0319 114.986C76.0166 115.784 75.8402 116.497 75.5029 117.125C75.1732 117.746 74.7056 118.233 74.0999 118.586C73.5019 118.939 72.8004 119.115 71.9954 119.115ZM71.9954 118.137C72.6087 118.137 73.1416 117.999 73.5939 117.723C74.0462 117.447 74.3912 117.072 74.6289 116.596C74.8666 116.121 74.9854 115.584 74.9854 114.986C74.9854 114.388 74.8666 113.852 74.6289 113.376C74.3912 112.901 74.0462 112.525 73.5939 112.249C73.1416 111.973 72.6087 111.835 71.9954 111.835C71.3744 111.835 70.8377 111.973 70.3854 112.249C69.9407 112.525 69.5996 112.901 69.3619 113.376C69.1242 113.852 69.0054 114.388 69.0054 114.986C69.0054 115.584 69.1242 116.121 69.3619 116.596C69.5996 117.072 69.9407 117.447 70.3854 117.723C70.8377 117.999 71.3744 118.137 71.9954 118.137ZM85.6147 119.115C85.0704 119.115 84.5452 119 84.0392 118.77C83.5332 118.54 83.1192 118.191 82.7972 117.723C82.4752 117.248 82.3142 116.669 82.3142 115.987V111.444C82.3142 111.299 82.3641 111.176 82.4637 111.076C82.5634 110.969 82.6861 110.915 82.8317 110.915C82.9774 110.915 83.1001 110.969 83.1997 111.076C83.3071 111.176 83.3607 111.299 83.3607 111.444V116.021C83.3607 116.481 83.4642 116.872 83.6712 117.194C83.8859 117.516 84.1657 117.758 84.5107 117.919C84.8557 118.08 85.2237 118.16 85.6147 118.16C86.0057 118.16 86.3737 118.08 86.7187 117.919C87.0637 117.758 87.3397 117.516 87.5467 117.194C87.7614 116.872 87.8687 116.481 87.8687 116.021V111.444C87.8687 111.299 87.9186 111.176 88.0182 111.076C88.1179 110.969 88.2406 110.915 88.3862 110.915C88.5319 110.915 88.6546 110.969 88.7542 111.076C88.8616 111.176 88.9152 111.299 88.9152 111.444V115.987C88.9152 116.669 88.7542 117.248 88.4322 117.723C88.1102 118.191 87.6962 118.54 87.1902 118.77C86.6842 119 86.1591 119.115 85.6147 119.115ZM94.4216 119.115C93.4479 119.115 92.5356 118.931 91.6846 118.563C91.5926 118.525 91.5159 118.463 91.4546 118.379C91.3932 118.287 91.3626 118.191 91.3626 118.091C91.3626 117.961 91.4047 117.85 91.4891 117.758C91.5811 117.658 91.6961 117.608 91.8341 117.608C91.9107 117.608 91.9836 117.624 92.0526 117.654C92.7579 117.969 93.5131 118.126 94.3181 118.126C95.6597 118.126 96.3306 117.685 96.3306 116.803C96.3306 116.573 96.2424 116.382 96.0661 116.228C95.8974 116.075 95.6866 115.956 95.4336 115.872C95.1806 115.78 94.8202 115.673 94.3526 115.55C93.7316 115.389 93.2294 115.236 92.8461 115.09C92.4627 114.937 92.1331 114.71 91.8571 114.411C91.5811 114.112 91.4431 113.714 91.4431 113.215C91.4431 112.778 91.5581 112.384 91.7881 112.031C92.0181 111.671 92.3554 111.387 92.8001 111.18C93.2524 110.965 93.7929 110.858 94.4216 110.858C95.2649 110.858 96.0277 110.984 96.7101 111.237C96.9247 111.314 97.0321 111.467 97.0321 111.697C97.0321 111.82 96.9899 111.931 96.9056 112.031C96.8212 112.131 96.7101 112.18 96.5721 112.18C96.5261 112.18 96.4647 112.165 96.3881 112.134C95.7901 111.927 95.1729 111.824 94.5366 111.824C93.9309 111.824 93.4364 111.939 93.0531 112.169C92.6774 112.399 92.4896 112.721 92.4896 113.135C92.4896 113.411 92.5777 113.637 92.7541 113.813C92.9381 113.982 93.1642 114.116 93.4326 114.216C93.7086 114.308 94.0804 114.408 94.5481 114.515C95.1537 114.661 95.6406 114.806 96.0086 114.952C96.3842 115.098 96.7024 115.324 96.9631 115.63C97.2314 115.937 97.3656 116.351 97.3656 116.872C97.3656 117.302 97.2429 117.689 96.9976 118.034C96.7522 118.371 96.4072 118.636 95.9626 118.827C95.5179 119.019 95.0042 119.115 94.4216 119.115ZM94.0996 110.501C93.9999 110.501 93.9156 110.482 93.8466 110.444C93.7776 110.406 93.7086 110.348 93.6396 110.271L92.8576 109.466C92.7962 109.405 92.7656 109.332 92.7656 109.248C92.7579 109.164 92.7886 109.087 92.8576 109.018C92.9266 108.941 93.0109 108.903 93.1106 108.903C93.1949 108.903 93.2639 108.93 93.3176 108.983L94.3181 109.834L95.3186 108.983C95.3722 108.93 95.4412 108.903 95.5256 108.903C95.6252 108.903 95.7096 108.941 95.7786 109.018C95.8476 109.087 95.8782 109.164 95.8706 109.248C95.8706 109.332 95.8399 109.405 95.7786 109.466L94.9966 110.271C94.9276 110.348 94.8586 110.406 94.7896 110.444C94.7206 110.482 94.6362 110.501 94.5366 110.501H94.0996ZM103.325 119.115C102.558 119.115 101.868 118.95 101.255 118.621C100.649 118.283 100.17 117.804 99.8175 117.183C99.4725 116.554 99.3 115.822 99.3 114.986C99.3 114.151 99.4725 113.422 99.8175 112.801C100.17 112.173 100.649 111.694 101.255 111.364C101.868 111.027 102.558 110.858 103.325 110.858C103.846 110.858 104.31 110.919 104.717 111.042C105.131 111.165 105.541 111.341 105.947 111.571C106.116 111.663 106.2 111.809 106.2 112.008C106.2 112.123 106.158 112.226 106.074 112.318C105.989 112.403 105.878 112.445 105.74 112.445C105.663 112.445 105.594 112.43 105.533 112.399C105.196 112.223 104.866 112.088 104.544 111.996C104.222 111.904 103.85 111.858 103.429 111.858C102.769 111.858 102.206 111.996 101.738 112.272C101.278 112.541 100.929 112.913 100.692 113.388C100.462 113.856 100.347 114.388 100.347 114.986C100.347 115.584 100.462 116.121 100.692 116.596C100.929 117.064 101.278 117.436 101.738 117.712C102.206 117.98 102.769 118.114 103.429 118.114C103.85 118.114 104.222 118.068 104.544 117.976C104.866 117.884 105.196 117.75 105.533 117.574C105.594 117.543 105.663 117.528 105.74 117.528C105.878 117.528 105.989 117.57 106.074 117.654C106.158 117.739 106.2 117.842 106.2 117.965C106.2 118.164 106.116 118.31 105.947 118.402C105.541 118.632 105.131 118.808 104.717 118.931C104.31 119.054 103.846 119.115 103.325 119.115ZM103.21 110.501C103.118 110.501 103.041 110.475 102.98 110.421C102.926 110.36 102.9 110.283 102.9 110.191C102.9 110.122 102.926 110.049 102.98 109.972L103.567 108.937C103.643 108.792 103.77 108.719 103.946 108.719C104.069 108.719 104.168 108.757 104.245 108.834C104.329 108.911 104.372 109.014 104.372 109.144C104.372 109.252 104.333 109.348 104.257 109.432L103.463 110.375C103.394 110.459 103.31 110.501 103.21 110.501ZM109.102 119C108.956 119 108.833 118.95 108.734 118.85C108.634 118.751 108.584 118.628 108.584 118.482V111.502C108.584 111.356 108.634 111.234 108.734 111.134C108.833 111.027 108.956 110.973 109.102 110.973H113.713C113.851 110.973 113.966 111.023 114.058 111.122C114.158 111.214 114.208 111.329 114.208 111.467C114.208 111.605 114.158 111.72 114.058 111.812C113.966 111.904 113.851 111.95 113.713 111.95H109.631V114.492H113.299C113.437 114.492 113.552 114.542 113.644 114.641C113.744 114.733 113.794 114.848 113.794 114.986C113.794 115.124 113.744 115.239 113.644 115.331C113.552 115.423 113.437 115.469 113.299 115.469H109.631V118.022H113.713C113.851 118.022 113.966 118.072 114.058 118.172C114.158 118.264 114.208 118.379 114.208 118.517C114.208 118.655 114.158 118.77 114.058 118.862C113.966 118.954 113.851 119 113.713 119H109.102Z" fill="white"/>
<path d="M11.1774 53.8632C11.1562 54.0073 11.089 54.1214 10.9759 54.2055C10.8628 54.2895 10.7341 54.321 10.59 54.2997L3.62718 53.274C3.48307 53.2528 3.36898 53.1856 3.2849 53.0725C3.19324 52.9582 3.15802 52.829 3.17925 52.6849L3.56139 50.0909C3.66754 49.3704 3.87549 48.8004 4.18525 48.3811C4.495 47.9617 4.85402 47.6814 5.26231 47.5401C5.67061 47.3987 6.09471 47.3605 6.53463 47.4253C6.97455 47.4901 7.3696 47.649 7.71979 47.9021C8.06998 48.1552 8.33291 48.5271 8.50858 49.018C8.68426 49.5088 8.71902 50.1145 8.61287 50.8351L8.30783 52.9057L10.7426 53.2644C10.8867 53.2856 11.0002 53.3566 11.0832 53.4773C11.1672 53.5904 11.1987 53.7191 11.1774 53.8632ZM7.61935 50.7933C7.73332 50.0197 7.6653 49.4556 7.41531 49.101C7.16643 48.7389 6.82203 48.5254 6.38211 48.4606C5.94219 48.3958 5.55087 48.5009 5.20813 48.7759C4.86651 49.0433 4.63871 49.5638 4.52474 50.3374L4.23479 52.3057L7.32939 52.7616L7.61935 50.7933Z" fill="white"/>
<path d="M12.6006 46.0017C12.54 46.1915 12.4217 46.3349 12.2459 46.4316C12.0652 46.5187 11.8799 46.5319 11.69 46.4713L5.1831 44.3921C5.04434 44.3478 4.94266 44.263 4.87806 44.1377C4.80616 44.0101 4.79237 43.8769 4.83671 43.7381C4.88105 43.5994 4.9695 43.4989 5.10208 43.4366C5.22969 43.3647 5.36287 43.3509 5.50162 43.3952L11.7018 45.3764L12.8464 41.7943C12.8907 41.6556 12.9792 41.5551 13.1118 41.4928C13.2394 41.4209 13.3725 41.4071 13.5113 41.4515C13.6501 41.4958 13.7506 41.5843 13.8128 41.7168C13.8774 41.8421 13.8876 41.9741 13.8432 42.1129L12.6006 46.0017Z" fill="white"/>
<path d="M14.8525 39.6637C14.7822 39.8 14.6798 39.8895 14.5455 39.9323C14.4147 39.9682 14.2846 39.9528 14.1552 39.8859C14.1007 39.8578 14.0414 39.8056 13.9773 39.7293L9.17287 33.9461C9.07842 33.8283 9.01837 33.7023 8.99272 33.5683C8.96377 33.4239 8.98625 33.2801 9.06015 33.1371L9.11294 33.0349C9.18685 32.8919 9.2893 32.7938 9.4203 32.7407C9.54802 32.6772 9.68725 32.6499 9.838 32.6588L17.3346 33.2314C17.434 33.2395 17.5109 33.2577 17.5654 33.2859C17.6948 33.3527 17.7809 33.4533 17.8237 33.5876C17.87 33.7151 17.858 33.8469 17.7876 33.9832C17.7383 34.0785 17.6687 34.1548 17.5788 34.2119C17.4856 34.2586 17.3842 34.2796 17.2745 34.2747L15.3376 34.1153L13.5428 37.589L14.7935 39.0766C14.8609 39.1632 14.9007 39.2615 14.913 39.3714C14.922 39.4709 14.9018 39.5684 14.8525 39.6637ZM12.8795 36.7933L14.3048 34.0347L10.2717 33.6984L12.8795 36.7933Z" fill="white"/>
<path d="M19.1322 31.967C19.0429 32.0821 18.9283 32.1484 18.7884 32.1659C18.6485 32.1835 18.5211 32.1476 18.4061 32.0582L12.9845 27.8461C12.821 27.7191 12.7265 27.5534 12.7008 27.349C12.6691 27.1399 12.7167 26.9536 12.8437 26.7902L12.9355 26.6721C13.086 26.4784 13.3061 26.3824 13.5959 26.3843L21.3615 26.8108L16.4576 23.0009C16.3426 22.9115 16.2763 22.7969 16.2587 22.657C16.2351 22.5125 16.268 22.3827 16.3573 22.2677C16.4467 22.1526 16.5643 22.0887 16.7102 22.0758C16.8548 22.0522 16.9846 22.0851 17.0996 22.1745L22.5212 26.3865C22.6847 26.5135 22.7769 26.6823 22.7978 26.8927C22.8235 27.0971 22.7728 27.2811 22.6458 27.4445L22.5612 27.5535C22.4859 27.6504 22.3942 27.7247 22.2859 27.7766C22.1716 27.8237 22.057 27.8463 21.942 27.8443L14.1351 27.4148L19.0481 31.2318C19.1632 31.3212 19.2271 31.4388 19.2399 31.5847C19.2575 31.7246 19.2216 31.852 19.1322 31.967Z" fill="white"/>
<path d="M25.0397 25.024C24.9359 25.1263 24.8136 25.1769 24.6727 25.176C24.5317 25.175 24.4101 25.1226 24.3078 25.0189L19.326 19.9664C19.2237 19.8627 19.1731 19.7403 19.1741 19.5994C19.1697 19.453 19.2194 19.3286 19.3231 19.2264C19.4268 19.1241 19.5518 19.0762 19.6982 19.0826C19.8446 19.0782 19.9689 19.1279 20.0712 19.2316L25.053 24.2841C25.1553 24.3878 25.2032 24.5129 25.1967 24.6592C25.1957 24.8001 25.1434 24.9218 25.0397 25.024Z" fill="white"/>
<path d="M27.5624 22.5842C27.4461 22.672 27.3182 22.7062 27.1786 22.6868C27.039 22.6673 26.9253 22.5995 26.8375 22.4833L22.6988 17.0054C22.5741 16.8403 22.5259 16.6557 22.5543 16.4517C22.5781 16.2415 22.6726 16.074 22.8377 15.9493L22.957 15.8591C23.1527 15.7112 23.3903 15.6759 23.6696 15.7531L31.0567 18.1858L27.3131 13.2309C27.2253 13.1147 27.1912 12.9868 27.2106 12.8472C27.2254 12.7015 27.2909 12.5847 27.4072 12.4969C27.5234 12.4091 27.6536 12.378 27.7978 12.4035C27.9436 12.4183 28.0603 12.4839 28.1481 12.6001L32.2868 18.0779C32.4116 18.2431 32.4567 18.43 32.4222 18.6386C32.3938 18.8427 32.297 19.0071 32.1318 19.1319L32.0217 19.2151C31.9238 19.289 31.8159 19.3369 31.6979 19.3588C31.5753 19.3746 31.4587 19.3665 31.3482 19.3347L23.922 16.8884L27.6725 21.8524C27.7603 21.9686 27.7914 22.0989 27.7659 22.2431C27.7464 22.3827 27.6786 22.4964 27.5624 22.5842Z" fill="white"/>
<path d="M34.5761 17.5953C34.4391 17.6641 34.3037 17.6764 34.1699 17.6322C34.0429 17.5845 33.9467 17.4955 33.8813 17.3654C33.8538 17.3106 33.8364 17.2335 33.8294 17.1341L33.3394 9.63158C33.3322 9.48073 33.3576 9.34353 33.4156 9.21997C33.477 9.08611 33.5796 8.98302 33.7235 8.9107L33.8262 8.85904C33.9701 8.78672 34.1106 8.76754 34.2478 8.80152C34.3884 8.82521 34.5171 8.88492 34.6339 8.98066L40.3638 13.8485C40.4394 13.9134 40.491 13.9733 40.5185 14.0281C40.584 14.1583 40.5946 14.2903 40.5503 14.4241C40.5129 14.5544 40.4257 14.6541 40.2887 14.7229C40.1928 14.7712 40.0917 14.792 39.9854 14.7853C39.8825 14.7684 39.7881 14.7258 39.7022 14.6574L38.2285 13.3904L34.7352 15.1469L34.8733 17.0854C34.877 17.1951 34.8515 17.2981 34.7968 17.3942C34.7456 17.48 34.672 17.547 34.5761 17.5953ZM34.666 14.1133L37.4401 12.7184L34.3741 10.0767L34.666 14.1133Z" fill="white"/>
<path d="M42.5557 13.914C42.4164 13.9568 42.2845 13.9452 42.16 13.8792C42.0354 13.8132 41.9518 13.7106 41.909 13.5713L39.8412 6.84394C39.7984 6.7047 39.81 6.57281 39.876 6.44826C39.9398 6.31638 40.0412 6.22904 40.1805 6.18625L42.7417 5.39902C43.7384 5.09269 44.5489 5.06814 45.1734 5.32536C45.7979 5.58258 46.2126 6.04463 46.4175 6.71151C46.5527 7.15121 46.552 7.59256 46.4155 8.03556C46.284 8.46897 46.0085 8.83837 45.5891 9.14375C46.1595 9.12081 46.62 9.34022 46.9704 9.80197C47.3259 10.2541 47.5803 10.7294 47.7335 11.2277L47.8889 11.7334C47.9317 11.8726 47.9201 12.0045 47.8541 12.129C47.7881 12.2536 47.6855 12.3373 47.5463 12.3801C47.3924 12.4274 47.2543 12.4217 47.132 12.363C47.0147 12.2948 46.9336 12.1874 46.8886 12.0408L46.7872 11.711C46.6746 11.3446 46.538 11.0177 46.3774 10.7301C46.2146 10.4353 45.9715 10.2052 45.648 10.04C45.3222 9.86742 44.9065 9.85883 44.4009 10.0143L42.1254 10.7136L42.9093 13.2639C42.9521 13.4031 42.9368 13.5361 42.8635 13.6629C42.7975 13.7875 42.6949 13.8712 42.5557 13.914ZM43.8245 9.15674C44.4547 8.96303 44.9148 8.68529 45.2046 8.3235C45.5018 7.95947 45.5805 7.55027 45.4409 7.09591C45.3057 6.65621 45.0409 6.36866 44.6464 6.23326C44.2592 6.09561 43.6808 6.14504 42.9114 6.38154L40.9767 6.97618L41.8349 9.76828L43.8245 9.15674Z" fill="white"/>
<path d="M52.1119 11.6641C51.1472 11.7958 50.2184 11.737 49.3254 11.4875C49.2291 11.4619 49.1448 11.4116 49.0726 11.3363C48.9994 11.2534 48.9561 11.1626 48.9426 11.0639C48.9249 10.9347 48.9517 10.8189 49.0228 10.7163C49.1005 10.6051 49.2077 10.5402 49.3444 10.5215C49.4203 10.5112 49.4946 10.5165 49.5671 10.5375C50.3085 10.7536 51.078 10.8071 51.8756 10.6982C53.2049 10.5167 53.8099 9.98912 53.6906 9.11556C53.6595 8.88768 53.5462 8.7097 53.3508 8.58164C53.1629 8.45253 52.9379 8.36332 52.6758 8.31399C52.4127 8.25707 52.0412 8.19947 51.5612 8.14121C50.9241 8.06571 50.4058 7.98173 50.0063 7.88927C49.6058 7.78921 49.2485 7.60973 48.9346 7.35082C48.6207 7.09191 48.43 6.71558 48.3626 6.22183C48.3035 5.78885 48.364 5.38209 48.5442 5.00154C48.7233 4.6134 49.0192 4.2867 49.4317 4.02145C49.8509 3.74755 50.3719 3.56808 50.9948 3.48302C51.8303 3.36892 52.6033 3.39104 53.3136 3.5494C53.5366 3.59631 53.6637 3.73372 53.6948 3.9616C53.7114 4.08314 53.6847 4.19899 53.6146 4.30915C53.5445 4.41931 53.4411 4.48373 53.3044 4.5024C53.2588 4.50862 53.196 4.50173 53.1159 4.48172C52.4954 4.35753 51.8699 4.33848 51.2394 4.42458C50.6393 4.50652 50.1649 4.68737 49.8162 4.96712C49.4751 5.24583 49.3326 5.59029 49.3886 6.00048C49.4259 6.27394 49.5439 6.4861 49.7425 6.63695C49.9476 6.77917 50.1898 6.88151 50.4692 6.94395C50.7551 6.99776 51.137 7.0462 51.6149 7.08928C52.2347 7.15166 52.7368 7.23012 53.1211 7.32465C53.513 7.41815 53.8588 7.59919 54.1586 7.86777C54.466 8.13531 54.6549 8.52735 54.7254 9.04389C54.7835 9.46928 54.7144 9.86948 54.518 10.2445C54.3205 10.6119 54.0145 10.9207 53.5999 11.1707C53.1852 11.4208 52.6892 11.5853 52.1119 11.6641Z" fill="white"/>
<path d="M57.9502 11.0919C57.8045 11.0886 57.683 11.036 57.5857 10.9341C57.4883 10.8321 57.4413 10.7084 57.4446 10.5627L57.6068 3.46909C57.6101 3.32347 57.6628 3.20197 57.7647 3.10461C57.8668 2.99958 57.9906 2.94873 58.1363 2.95206C58.2819 2.95539 58.4033 3.01184 58.5005 3.12143C58.6055 3.22352 58.6564 3.34738 58.653 3.49301L58.5694 7.14906L62.5929 3.23799C62.703 3.11781 62.8347 3.05947 62.988 3.06297C63.1183 3.06595 63.2284 3.11448 63.3182 3.20856C63.416 3.29515 63.4633 3.40359 63.4603 3.53389C63.4568 3.68718 63.412 3.80502 63.3257 3.88741L60.6095 6.471L63.5684 10.3806C63.6503 10.4899 63.6899 10.602 63.6872 10.717C63.6918 10.8551 63.643 10.9728 63.5411 11.0702C63.4392 11.1676 63.3154 11.2146 63.1698 11.2113C62.9935 11.2072 62.8571 11.1351 62.7606 10.9948L59.8809 7.14453L58.54 8.43672L58.4909 10.5867C58.4875 10.7323 58.4311 10.8537 58.3215 10.9509C58.2196 11.0482 58.0958 11.0953 57.9502 11.0919Z" fill="white"/>
<path d="M68.4917 12.1273C67.7021 11.9707 67.0446 11.6606 66.5191 11.1968C65.9936 10.7331 65.6296 10.1646 65.427 9.49128C65.2244 8.81801 65.1939 8.08508 65.3355 7.29247C65.5071 6.50584 65.8151 5.84002 66.2592 5.29501C66.7034 4.75001 67.2568 4.36345 67.9195 4.13535C68.5822 3.90725 69.3084 3.8715 70.098 4.0281C70.8877 4.1847 71.5414 4.49413 72.0594 4.95639C72.5849 5.42015 72.9482 5.99242 73.1493 6.67321C73.3593 7.34797 73.3943 8.07789 73.2543 8.86297C73.0841 9.64209 72.7724 10.3072 72.3193 10.8582C71.8751 11.4032 71.3216 11.7898 70.6589 12.0179C70.0038 12.2475 69.2814 12.284 68.4917 12.1273ZM68.6819 11.1685C69.2835 11.2878 69.833 11.2561 70.3304 11.0734C70.8278 10.8907 71.2393 10.5893 71.5649 10.1693C71.8905 9.74926 72.1114 9.24596 72.2278 8.65939C72.3441 8.07281 72.3319 7.52328 72.1913 7.0108C72.0506 6.49831 71.7853 6.0627 71.3953 5.70398C71.0053 5.34526 70.5095 5.10624 69.9079 4.98692C69.2987 4.86612 68.7455 4.89708 68.2481 5.07981C67.7582 5.26403 67.3505 5.56615 67.0249 5.98617C66.6993 6.40619 66.4783 6.90948 66.362 7.49606C66.2457 8.08263 66.2578 8.63216 66.3985 9.14465C66.5392 9.65714 66.8007 10.092 67.1832 10.4492C67.5732 10.808 68.0728 11.0477 68.6819 11.1685Z" fill="white"/>
<path d="M78.0008 14.8808C77.8703 14.816 77.7826 14.7169 77.7376 14.5833C77.6926 14.4497 77.7024 14.3177 77.7672 14.1872L80.869 7.93373C80.9337 7.80323 81.0329 7.71549 81.1664 7.67049C81.3034 7.61862 81.4371 7.62505 81.5676 7.68978L83.6384 8.7169C84.4214 9.10527 84.9973 9.60916 85.3661 10.2286C85.7452 10.8445 85.9359 11.4953 85.9381 12.1811C85.9403 12.8668 85.7915 13.5119 85.4917 14.1163C85.1919 14.7207 84.7684 15.2295 84.2211 15.6426C83.6738 16.0558 83.0386 16.3013 82.3154 16.379C81.6025 16.4533 80.8545 16.2963 80.0716 15.9079L78.0008 14.8808ZM80.3926 14.976C80.9558 15.2553 81.5065 15.3873 82.0448 15.3719C82.5864 15.3496 83.0745 15.1937 83.509 14.9043C83.9469 14.6081 84.2988 14.1921 84.5645 13.6564C84.8302 13.1206 84.9468 12.5922 84.9143 12.0712C84.8852 11.5433 84.7139 11.0604 84.4005 10.6225C84.0905 10.1778 83.6539 9.81574 83.0907 9.53639L81.6072 8.80053L78.9091 14.2401L80.3926 14.976Z" fill="white"/>
<path d="M85.6581 19.1077C85.5406 19.0215 85.4712 18.9088 85.4498 18.7695C85.4284 18.6302 85.4608 18.5018 85.547 18.3843L89.7105 12.71C89.7967 12.5925 89.9094 12.5231 90.0487 12.5017C90.1926 12.4741 90.3232 12.5034 90.4407 12.5896L92.601 14.1747C93.4417 14.7915 93.9452 15.4272 94.1115 16.0818C94.2778 16.7363 94.1547 17.3449 93.7419 17.9073C93.4698 18.2782 93.1153 18.5411 92.6783 18.6959C92.2521 18.8492 91.7913 18.8486 91.296 18.6943C91.6548 19.1383 91.7536 19.6387 91.5923 20.1955C91.4417 20.7507 91.2122 21.2384 90.9038 21.6587L90.5909 22.0852C90.5047 22.2027 90.392 22.2721 90.2527 22.2935C90.1133 22.3149 89.985 22.2825 89.8675 22.1963C89.7377 22.1011 89.6598 21.9869 89.6339 21.8538C89.6187 21.719 89.6564 21.5898 89.7471 21.4661L89.9512 21.188C90.178 20.8789 90.3588 20.5742 90.4937 20.2738C90.6331 19.9671 90.6725 19.6347 90.612 19.2766C90.5561 18.9122 90.3148 18.5735 89.8883 18.2606L87.969 16.8523L86.3907 19.0034C86.3046 19.1209 86.1887 19.188 86.0432 19.2049C85.9039 19.2263 85.7755 19.1939 85.6581 19.1077ZM90.2323 17.2863C90.7639 17.6764 91.2613 17.8797 91.7246 17.8963C92.1941 17.9175 92.5694 17.7364 92.8506 17.3532C93.1227 16.9823 93.1953 16.5982 93.0685 16.2008C92.9478 15.808 92.563 15.3735 91.914 14.8973L90.2821 13.6999L88.5541 16.055L90.2323 17.2863Z" fill="white"/>
<path d="M93.6756 25.9499C93.2997 25.5563 93.0201 25.0971 92.8369 24.5723C92.6538 24.0476 92.6201 23.5072 92.7359 22.9514C92.8572 22.3902 93.1646 21.874 93.658 21.4027L96.943 18.2653C97.0483 18.1647 97.1714 18.116 97.3123 18.1192C97.4588 18.1171 97.5823 18.1688 97.6829 18.2741C97.7836 18.3795 97.8295 18.5052 97.8207 18.6514C97.8228 18.7979 97.7711 18.9214 97.6658 19.022L94.3559 22.1833C94.0233 22.501 93.812 22.8459 93.7221 23.218C93.6375 23.5957 93.6561 23.9648 93.778 24.3255C93.8999 24.6862 94.0958 25.0079 94.3659 25.2907C94.6359 25.5734 94.9483 25.784 95.303 25.9222C95.6578 26.0605 96.023 26.0933 96.3989 26.0206C96.78 25.9535 97.1369 25.761 97.4695 25.4433L100.779 22.282C100.885 22.1814 101.008 22.1327 101.149 22.136C101.295 22.1339 101.419 22.1855 101.519 22.2909C101.62 22.3962 101.666 22.522 101.657 22.6682C101.659 22.8147 101.608 22.9382 101.502 23.0388L98.2173 26.1762C97.7238 26.6475 97.1941 26.9309 96.6279 27.0263C96.0673 27.1165 95.5291 27.058 95.0133 26.851C94.4975 26.6439 94.0516 26.3436 93.6756 25.9499Z" fill="white"/>
<path d="M98.8691 32.4032C98.3306 31.592 97.9793 30.7302 97.8153 29.8176C97.7963 29.7198 97.805 29.622 97.8414 29.5242C97.8841 29.4223 97.947 29.3437 98.03 29.2886C98.1386 29.2165 98.2545 29.1902 98.3778 29.2095C98.5117 29.2311 98.6169 29.2993 98.6932 29.4143C98.7356 29.4782 98.7631 29.5473 98.7757 29.6218C98.9039 30.3833 99.1906 31.0993 99.6358 31.77C100.378 32.8878 101.116 33.2029 101.851 32.7153C102.042 32.5881 102.153 32.4086 102.183 32.1769C102.218 31.9516 102.2 31.7102 102.131 31.4528C102.067 31.1911 101.958 30.8316 101.801 30.3741C101.592 29.7677 101.442 29.2645 101.351 28.8645C101.267 28.4604 101.273 28.0606 101.369 27.6653C101.466 27.27 101.722 26.9345 102.137 26.6589C102.501 26.4173 102.894 26.2947 103.315 26.2913C103.742 26.2836 104.165 26.4078 104.583 26.6638C105.012 26.9219 105.401 27.3128 105.748 27.8366C106.215 28.5392 106.531 29.2447 106.698 29.9531C106.753 30.1744 106.684 30.3486 106.493 30.4758C106.39 30.5437 106.275 30.57 106.145 30.5549C106.015 30.5397 105.912 30.4747 105.836 30.3597C105.81 30.3214 105.789 30.2618 105.772 30.181C105.614 29.5683 105.359 28.9968 105.007 28.4667C104.672 27.9621 104.303 27.6137 103.899 27.4215C103.5 27.2357 103.128 27.2573 102.783 27.4863C102.553 27.6389 102.413 27.8375 102.364 28.0819C102.325 28.3285 102.338 28.5911 102.404 28.8698C102.48 29.1506 102.602 29.5155 102.772 29.9645C102.985 30.5497 103.133 31.0359 103.215 31.423C103.302 31.8166 103.289 32.2067 103.178 32.5935C103.071 32.9867 102.8 33.3274 102.366 33.6158C102.008 33.8532 101.618 33.9651 101.194 33.9515C100.778 33.9337 100.366 33.7926 99.9609 33.5281C99.5553 33.2636 99.1913 32.8887 98.8691 32.4032ZM105.867 27.3712C105.812 27.2881 105.781 27.2073 105.775 27.1286C105.769 27.0499 105.779 26.9606 105.804 26.8607L106.043 25.764C106.06 25.679 106.104 25.6131 106.174 25.5665C106.24 25.5135 106.321 25.4966 106.416 25.5159C106.518 25.531 106.597 25.5801 106.652 25.6631C106.699 25.7334 106.715 25.8057 106.699 25.8801L106.544 27.1843L107.806 27.5472C107.881 27.5623 107.941 27.6049 107.988 27.6752C108.043 27.7582 108.058 27.8497 108.032 27.9496C108.012 28.0452 107.966 28.1132 107.891 28.1534C107.821 28.2 107.743 28.2148 107.658 28.1976L106.555 27.9913C106.453 27.9762 106.367 27.9505 106.297 27.9142C106.227 27.878 106.164 27.8183 106.109 27.7353L105.867 27.3712Z" fill="white"/>
<path d="M102.656 39.0587C102.596 38.9257 102.592 38.7934 102.642 38.6617C102.693 38.5301 102.784 38.4346 102.917 38.3752L108.935 35.6894L107.978 33.5471C107.922 33.4211 107.917 33.2973 107.964 33.1758C108.01 33.0543 108.097 32.9654 108.223 32.9092C108.349 32.853 108.472 32.8481 108.594 32.8946C108.722 32.938 108.815 33.0227 108.871 33.1487L111.205 38.3784C111.262 38.5044 111.263 38.6298 111.209 38.7544C111.166 38.8829 111.081 38.9753 110.955 39.0315C110.829 39.0878 110.704 39.0891 110.579 39.0356C110.458 38.9891 110.369 38.9028 110.313 38.7768L109.361 36.645L103.344 39.3308C103.211 39.3902 103.077 39.3912 102.942 39.3338C102.811 39.2834 102.715 39.1917 102.656 39.0587Z" fill="white"/>
<path d="M105.395 46.8021C105.316 46.4977 105.428 46.2235 105.729 45.9798L111.693 41.5124C111.746 41.4748 111.807 41.4475 111.874 41.4303C112.029 41.3902 112.163 41.4032 112.275 41.4694C112.395 41.5336 112.475 41.6437 112.515 41.7996C112.542 41.9036 112.532 42.005 112.486 42.1039C112.45 42.2082 112.385 42.2961 112.293 42.3674L106.44 46.6638L113.64 47.6019C113.755 47.6197 113.853 47.6618 113.933 47.7282C114.023 47.8001 114.081 47.888 114.108 47.992C114.148 48.1479 114.131 48.2828 114.058 48.3967C113.992 48.5088 113.881 48.5848 113.725 48.6249C113.658 48.6421 113.592 48.6472 113.527 48.6402L106.148 47.6058C105.766 47.5377 105.536 47.3515 105.458 47.0471L105.395 46.8021Z" fill="white"/>
<path d="M106.714 55.3426C106.658 54.5396 106.785 53.8237 107.094 53.1949C107.404 52.5661 107.857 52.0657 108.453 51.6935C109.05 51.3213 109.749 51.0996 110.551 51.0281C111.355 50.9873 112.079 51.1097 112.721 51.3953C113.363 51.6809 113.882 52.1134 114.276 52.6931C114.67 53.2727 114.895 53.964 114.951 54.767C115.007 55.5701 114.88 56.2822 114.57 56.9033C114.26 57.5321 113.804 58.0328 113.199 58.4055C112.603 58.7853 111.908 59.0106 111.114 59.0815C110.317 59.1218 109.594 58.9956 108.943 58.7029C108.301 58.4173 107.783 57.9847 107.388 57.4051C106.995 56.8332 106.77 56.1457 106.714 55.3426ZM107.689 55.2745C107.732 55.8863 107.907 56.4082 108.214 56.8402C108.52 57.2722 108.919 57.5902 109.41 57.7942C109.901 57.9981 110.444 58.0792 111.041 58.0376C111.638 57.9959 112.165 57.8399 112.622 57.5697C113.08 57.2995 113.431 56.9291 113.674 56.4586C113.918 55.9882 114.019 55.447 113.976 54.8352C113.933 54.2157 113.758 53.6899 113.451 53.2579C113.144 52.8336 112.746 52.5195 112.255 52.3155C111.764 52.1115 111.221 52.0304 110.624 52.0721C110.028 52.1138 109.5 52.2697 109.043 52.54C108.585 52.8102 108.234 53.1767 107.99 53.6395C107.746 54.11 107.646 54.655 107.689 55.2745Z" fill="white"/>
</svg>
