<svg width="227" height="227" viewBox="0 0 227 227" fill="none" xmlns="http://www.w3.org/2000/svg">
<path d="M205 65.1923C205 62.7769 203.787 60.9654 201.967 59.7577L159.5 35.6038C158.287 35 157.68 35 156.467 35C155.253 35 154.647 35 153.433 35.6038L114 57.9462L74.5667 35.6038C73.3533 35 72.7467 35 71.5333 35C70.32 35 69.7133 35 68.5 35.6038L26.0333 59.7577C24.2133 60.9654 23 62.7769 23 65.1923V185.962C23 189.585 25.4267 192 29.0667 192C30.28 192 30.8867 191.396 32.1 191.396L71.5333 169.054L110.967 191.396C112.18 192 112.787 192 114 192C115.213 192 115.82 192 117.033 191.396L156.467 169.054L195.9 191.396C196.507 192 197.72 192 198.933 192C202.573 192 205 189.585 205 185.962V65.1923ZM35.1333 68.8154L65.4667 51.3038V158.185L35.1333 175.696V68.8154ZM107.933 175.696L77.6 158.185V51.3038L107.933 68.8154V175.696ZM150.4 158.185L120.067 175.696V68.8154L150.4 51.3038V158.185ZM162.533 158.185V51.3038L192.867 68.8154V175.696L162.533 158.185Z" fill="black"/>
</svg>
