<svg width="227" height="227" viewBox="0 0 227 227" fill="none" xmlns="http://www.w3.org/2000/svg">
<path d="M87.8462 61.6923H140.154M87.8462 61.6923C80.9097 61.6923 74.2574 64.4478 69.3526 69.3526C64.4478 74.2574 61.6923 80.9097 61.6923 87.8462V199M87.8462 61.6923V55.1538C87.8462 48.2174 90.6016 41.5651 95.5064 36.6603C100.411 31.7555 107.064 29 114 29C120.936 29 127.589 31.7555 132.494 36.6603C137.398 41.5651 140.154 48.2174 140.154 55.1538V61.6923M140.154 61.6923C147.09 61.6923 153.743 64.4478 158.647 69.3526C163.552 74.2574 166.308 80.9097 166.308 87.8462V199M166.308 199H61.6923M166.308 199H199V146.692C199 143.224 197.622 139.898 195.17 137.446C192.717 134.993 189.391 133.615 185.923 133.615H166.308M61.6923 199H29V146.692C29 143.224 30.3777 139.898 32.8301 137.446C35.2825 134.993 38.6087 133.615 42.0769 133.615H61.6923M61.6923 120.538H166.308M114 107.462V133.615" stroke="black" stroke-width="9" stroke-linecap="round" stroke-linejoin="round"/>
</svg>
